<?xml version="1.0" encoding="UTF-8"?>
<svg width="232px" height="232px" viewBox="0 0 232 232" version="1.1" xmlns="http://www.w3.org/2000/svg" xmlns:xlink="http://www.w3.org/1999/xlink">
    <title>icon</title>
    <g id="Page-1" stroke="none" stroke-width="1" fill="none" fill-rule="evenodd">
        <g id="icon">
            <polygon id="Fill-51" fill="#FECC2F" fill-rule="nonzero" points="0 231.645 231.645 231.645 231.645 0 0 0"></polygon>
            <g id="Logo" transform="translate(53.855500, 74.762000)">
                <path d="M122.1189,24.0899 L92.3619,24.0899 C88.8049,24.0899 85.9219,26.9729 85.9219,30.5299 C85.9219,34.0869 88.8049,36.9699 92.3619,36.9699 L114.8029,36.9699 C111.9789,47.1359 102.6419,54.6189 91.5889,54.6189 C88.0329,54.6189 85.1489,57.5029 85.1489,61.0599 C85.1489,64.6159 88.0329,67.4999 91.5889,67.4999 C101.4639,67.4999 110.7479,63.6539 117.7309,56.6719 C124.7139,49.6889 128.5589,40.4049 128.5589,30.5299 C128.5589,26.9729 125.6759,24.0899 122.1189,24.0899" id="Fill-126" fill="#36169A" fill-rule="nonzero"></path>
                <path d="M61.0593,30.5303 C61.0593,47.3903 47.3913,61.0593 30.5303,61.0593 C13.6683,61.0593 0.0003,47.3903 0.0003,30.5303 C0.0003,13.6693 13.6683,0.0003 30.5303,0.0003 C47.3913,0.0003 61.0593,13.6693 61.0593,30.5303 Z" id="Stroke-127" stroke="#36169A" stroke-width="12.493" stroke-linecap="round" stroke-linejoin="round"></path>
                <path d="M0.0002,30.5303 C0.0002,13.6693 13.6682,0.0003 30.5302,0.0003" id="Stroke-128" stroke="#1773F4" stroke-width="13" stroke-linecap="round" stroke-linejoin="round"></path>
                <path d="M30.53,61.0596 C13.669,61.0596 0,47.3906 0,30.5306" id="Stroke-129" stroke="#1773F4" stroke-width="13" stroke-linecap="round" stroke-linejoin="round"></path>
                <path d="M61.0593,30.5303 C61.0593,47.3903 47.3913,61.0593 30.5303,61.0593" id="Stroke-130" stroke="#36169A" stroke-width="13" stroke-linecap="round" stroke-linejoin="round"></path>
                <path d="M67.4704,30.1084 C67.4704,33.6494 64.5994,36.5194 61.0594,36.5194 C57.5184,36.5194 54.6484,33.6494 54.6484,30.1084 C54.6484,26.5684 57.5184,23.6984 61.0594,23.6984 C64.5994,23.6984 67.4704,26.5684 67.4704,30.1084" id="Fill-131" fill="#36169A" fill-rule="nonzero"></path>
                <path d="M61.0593,30.5303 C61.0593,13.6693 74.7283,0.0003 91.5893,0.0003" id="Stroke-132" stroke="#36169A" stroke-width="13" stroke-linecap="round" stroke-linejoin="round"></path>
                <path d="M91.9431,0 C101.8751,0 110.6991,4.742 116.2741,12.087" id="Stroke-133" stroke="#36169A" stroke-width="13" stroke-linecap="round" stroke-linejoin="round"></path>
                <path d="M91.5891,61.0596 C74.7281,61.0596 61.0591,47.3906 61.0591,30.5306" id="Stroke-134" stroke="#1773F4" stroke-width="13" stroke-linecap="round" stroke-linejoin="round"></path>
                <path d="M122.7473,12.1885 C122.7473,15.7635 119.8493,18.6625 116.2743,18.6625 C112.6993,18.6625 109.8013,15.7635 109.8013,12.1885 C109.8013,8.6145 112.6993,5.7155 116.2743,5.7155 C119.8493,5.7155 122.7473,8.6145 122.7473,12.1885" id="Fill-135" fill="#1773F4" fill-rule="nonzero"></path>
                <path d="M98.3537,30.5303 C98.3537,34.0703 95.4837,36.9403 91.9427,36.9403 C88.4027,36.9403 85.5327,34.0703 85.5327,30.5303 C85.5327,26.9893 88.4027,24.1193 91.9427,24.1193 C95.4837,24.1193 98.3537,26.9893 98.3537,30.5303" id="Fill-136" fill="#1773F4" fill-rule="nonzero"></path>
                <path d="M30.53,0 C47.391,0 61.059,13.669 61.059,30.53" id="Stroke-137" stroke="#1773F4" stroke-width="13" stroke-linecap="round" stroke-linejoin="round"></path>
            </g>
            <g id="Text" transform="translate(51.883700, 151.395400)" fill="#231F20" fill-rule="nonzero">
                <path d="M8.012,4.975 C8.012,4.563 7.941,4.173 7.799,3.807 C7.657,3.441 7.455,3.12 7.194,2.845 C6.933,2.571 6.624,2.353 6.267,2.192 C5.909,2.033 5.519,1.952 5.098,1.952 C4.668,1.952 4.276,2.03 3.923,2.185 C3.571,2.341 3.268,2.556 3.016,2.831 C2.764,3.106 2.568,3.424 2.426,3.787 C2.283,4.149 2.213,4.536 2.213,4.948 L2.213,4.975 C2.213,5.387 2.283,5.777 2.426,6.143 C2.568,6.51 2.769,6.83 3.03,7.105 C3.291,7.38 3.598,7.598 3.951,7.758 C4.304,7.918 4.695,7.998 5.126,7.998 C5.547,7.998 5.937,7.92 6.294,7.764 C6.651,7.609 6.955,7.394 7.208,7.12 C7.46,6.844 7.657,6.526 7.799,6.163 C7.941,5.802 8.012,5.414 8.012,5.002 L8.012,4.975 Z M9.84,6.906 C9.583,7.506 9.228,8.033 8.775,8.486 C8.321,8.94 7.78,9.297 7.153,9.558 C6.525,9.819 5.84,9.95 5.098,9.95 C4.356,9.95 3.674,9.819 3.051,9.558 C2.428,9.297 1.889,8.945 1.436,8.5 C0.982,8.055 0.63,7.534 0.378,6.933 C0.126,6.333 0,5.69 0,5.002 L0,4.975 C0,4.288 0.128,3.645 0.385,3.044 C0.641,2.445 0.996,1.917 1.45,1.463 C1.903,1.01 2.444,0.653 3.072,0.392 C3.699,0.131 4.384,0 5.126,0 C5.868,0 6.551,0.131 7.173,0.392 C7.797,0.653 8.335,1.005 8.788,1.451 C9.242,1.894 9.595,2.416 9.846,3.017 C10.098,3.617 10.224,4.26 10.224,4.948 L10.224,4.975 C10.224,5.662 10.096,6.306 9.84,6.906 L9.84,6.906 Z" id="Fill-138"></path>
                <path d="M21.974,3.5326 C21.974,3.0556 21.82,2.6936 21.514,2.4466 C21.207,2.1996 20.787,2.0756 20.256,2.0756 L18.621,2.0756 L18.621,5.0156 L20.297,5.0156 C20.828,5.0156 21.241,4.8766 21.534,4.5966 C21.827,4.3176 21.974,3.9716 21.974,3.5596 L21.974,3.5326 Z M23.815,4.9886 C23.614,5.4106 23.337,5.7626 22.984,6.0466 C22.631,6.3316 22.219,6.5446 21.747,6.6856 C21.275,6.8286 20.769,6.8986 20.229,6.8986 L18.621,6.8986 L18.621,9.7846 L16.505,9.7846 L16.505,0.1656 L20.435,0.1656 C21.012,0.1656 21.528,0.2456 21.981,0.4056 C22.434,0.5666 22.819,0.7926 23.135,1.0866 C23.452,1.3796 23.694,1.7296 23.863,2.1366 C24.033,2.5456 24.118,2.9966 24.118,3.4906 L24.118,3.5176 C24.118,4.0766 24.017,4.5676 23.815,4.9886 L23.815,4.9886 Z" id="Fill-139"></path>
                <polygon id="Fill-140" points="30.0819 9.7846 30.0819 0.1656 37.3239 0.1656 37.3239 2.0486 32.1709 2.0486 32.1709 3.9996 36.7059 3.9996 36.7059 5.8826 32.1709 5.8826 32.1709 7.9026 37.3929 7.9026 37.3929 9.7846"></polygon>
                <polygon id="Fill-141" points="50.4344 9.7846 45.7754 3.6696 45.7754 9.7846 43.6864 9.7846 43.6864 0.1656 45.6384 0.1656 50.1454 6.0886 50.1454 0.1656 52.2344 0.1656 52.2344 9.7846"></polygon>
                <path d="M65.9154,9.5033 C65.2324,9.8013 64.4514,9.9493 63.5724,9.9493 C62.8204,9.9493 62.1354,9.8263 61.5184,9.5783 C60.8994,9.3313 60.3684,8.9873 59.9234,8.5483 C59.4784,8.1083 59.1334,7.5863 58.8854,6.9813 C58.6384,6.3763 58.5144,5.7173 58.5144,5.0023 L58.5144,4.9753 C58.5144,4.2883 58.6414,3.6453 58.8934,3.0443 C59.1444,2.4443 59.4954,1.9173 59.9434,1.4633 C60.3934,1.0103 60.9244,0.6523 61.5384,0.3923 C62.1514,0.1313 62.8254,0.0003 63.5584,0.0003 C63.9894,0.0003 64.3804,0.0293 64.7334,0.0893 C65.0854,0.1493 65.4134,0.2333 65.7154,0.3443 C66.0184,0.4533 66.3024,0.5913 66.5684,0.7563 C66.8334,0.9203 67.0904,1.1083 67.3374,1.3193 L66.0044,2.9283 C65.8204,2.7723 65.6384,2.6343 65.4554,2.5153 C65.2714,2.3973 65.0814,2.2953 64.8844,2.2123 C64.6874,2.1303 64.4744,2.0663 64.2454,2.0213 C64.0164,1.9753 63.7644,1.9513 63.4894,1.9513 C63.1044,1.9513 62.7454,2.0323 62.4114,2.1923 C62.0764,2.3543 61.7834,2.5683 61.5314,2.8403 C61.2794,3.1113 61.0824,3.4283 60.9404,3.7903 C60.7984,4.1533 60.7274,4.5413 60.7274,4.9543 L60.7274,4.9823 C60.7274,5.4223 60.7984,5.8283 60.9404,6.2003 C61.0824,6.5723 61.2844,6.8973 61.5454,7.1723 C61.8064,7.4473 62.1134,7.6603 62.4654,7.8133 C62.8184,7.9643 63.2094,8.0393 63.6404,8.0393 C64.4284,8.0393 65.0924,7.8463 65.6334,7.4583 L65.6334,6.0743 L63.5034,6.0743 L63.5034,4.2463 L67.6814,4.2463 L67.6814,8.4243 C67.1864,8.8463 66.5974,9.2053 65.9154,9.5033" id="Fill-142"></path>
                <path d="M79.9945,3.4496 C79.9945,2.9916 79.8475,2.6476 79.5545,2.4196 C79.2615,2.1896 78.8535,2.0756 78.3315,2.0756 L76.2285,2.0756 L76.2285,4.8376 L78.3725,4.8376 C78.8945,4.8376 79.2955,4.7146 79.5755,4.4676 C79.8545,4.2196 79.9945,3.8886 79.9945,3.4766 L79.9945,3.4496 Z M79.9525,9.7846 L77.8915,6.7066 L76.2285,6.7066 L76.2285,9.7846 L74.1125,9.7846 L74.1125,0.1656 L78.5105,0.1656 C79.6555,0.1656 80.5465,0.4446 81.1825,1.0036 C81.8195,1.5626 82.1385,2.3416 82.1385,3.3396 L82.1385,3.3666 C82.1385,4.1456 81.9475,4.7806 81.5675,5.2706 C81.1875,5.7606 80.6905,6.1206 80.0775,6.3486 L82.4265,9.7846 L79.9525,9.7846 Z" id="Fill-143"></path>
                <path d="M92.6922,2.6381 L91.4142,5.7581 L93.9702,5.7581 L92.6922,2.6381 Z M95.6052,9.7841 L94.7262,7.6271 L90.6582,7.6271 L89.7782,9.7841 L87.6212,9.7841 L91.7442,0.0971 L93.6952,0.0971 L97.8182,9.7841 L95.6052,9.7841 Z" id="Fill-144"></path>
                <path d="M109.1693,3.5326 C109.1693,3.0556 109.0153,2.6936 108.7093,2.4466 C108.4013,2.1996 107.9823,2.0756 107.4513,2.0756 L105.8153,2.0756 L105.8153,5.0156 L107.4923,5.0156 C108.0233,5.0156 108.4363,4.8766 108.7293,4.5966 C109.0223,4.3176 109.1693,3.9716 109.1693,3.5596 L109.1693,3.5326 Z M111.0103,4.9886 C110.8093,5.4106 110.5323,5.7626 110.1793,6.0466 C109.8263,6.3316 109.4143,6.5446 108.9423,6.6856 C108.4703,6.8286 107.9643,6.8986 107.4233,6.8986 L105.8153,6.8986 L105.8153,9.7846 L103.6993,9.7846 L103.6993,0.1656 L107.6303,0.1656 C108.2073,0.1656 108.7223,0.2456 109.1763,0.4056 C109.6293,0.5666 110.0143,0.7926 110.3303,1.0866 C110.6473,1.3796 110.8893,1.7296 111.0583,2.1366 C111.2283,2.5456 111.3133,2.9966 111.3133,3.4906 L111.3133,3.5176 C111.3133,4.0766 111.2123,4.5676 111.0103,4.9886 L111.0103,4.9886 Z" id="Fill-145"></path>
                <polygon id="Fill-146" points="123.2957 9.7846 123.2957 5.9236 119.3927 5.9236 119.3927 9.7846 117.2767 9.7846 117.2767 0.1656 119.3927 0.1656 119.3927 3.9726 123.2957 3.9726 123.2957 0.1656 125.4127 0.1656 125.4127 9.7846"></polygon>
            </g>
        </g>
    </g>
</svg>